<?xml version="1.0" standalone="no"?>

<svg version="1.0" xmlns="http://www.w3.org/2000/svg" width="260.000000pt" height="260.000000pt" viewBox="0 0 260.000000 260.000000" preserveAspectRatio="xMidYMid meet">
<metadata>
Created by potrace 1.11, written by Peter Selinger 2001-2013
</metadata>
<g transform="translate(0.000000,260.000000) scale(0.100000,-0.100000)" fill="#000000" stroke="none">
<path d="M1288 2475 c-2 -2 -28 -5 -58 -9 -169 -18 -304 -66 -440 -154 -239&#xA;-157 -399 -429 -404 -689 0 -24 -4 -43 -9 -43 -4 0 -3 -9 3 -20 6 -11 7 -20 2&#xA;-20 -5 0 -9 -7 -9 -15 0 -8 3 -15 6 -15 4 0 7 -35 7 -77 2 -94 14 -477 17&#xA;-515 1 -16 6 -28 10 -28 4 0 7 -6 6 -13 -4 -18 10 -73 27 -107 9 -16 13 -34 9&#xA;-40 -3 -5 -2 -10 2 -10 5 0 14 -15 21 -33 40 -110 192 -298 312 -383 207 -148&#xA;506 -211 755 -160 112 23 246 70 253 88 2 4 9 8 15 8 37 0 210 148 280 240 23&#xA;30 45 57 48 60 8 6 62 111 65 125 1 6 6 29 12 52 7 28 6 45 -1 52 -8 8 -8 11&#xA;1 11 8 0 9 7 3 22 -16 39 -24 63 -25 70 -2 15 -75 87 -103 101 -48 25 -153 42&#xA;-153 25 0 -5 -4 -7 -9 -3 -5 3 -22 0 -38 -7 -64 -28 -113 -70 -149 -130 -49&#xA;-81 -86 -119 -156 -161 -192 -115 -431 -49 -562 156 -20 32 -34 57 -31 57 3 0&#xA;0 10 -7 23 -15 27 -19 60 -21 164 -1 46 -6 83 -10 83 -4 0 -3 9 3 19 7 14 7&#xA;22 0 26 -8 5 -7 11 1 21 6 8 7 14 3 14 -5 0 -9 33 -9 73 0 39 -2 96 -6 124 -3&#xA;30 -1 57 5 63 6 6 6 10 0 10 -5 0 -9 23 -9 50 0 28 4 50 8 50 5 0 6 4 2 10 -6&#xA;10 45 128 67 155 71 87 177 164 249 181 48 12 145 11 194 -2 97 -26 148 -63&#xA;246 -180 81 -97 110 -116 201 -129 14 -3 30 -5 35 -6 4 -1 10 -1 13 0 3 1 19&#xA;4 35 6 56 7 65 11 105 41 83 61 119 198 75 291 -17 36 -68 115 -90 140 -50 56&#xA;-125 128 -147 141 -16 9 -28 20 -28 24 0 4 -5 8 -11 8 -6 0 -31 14 -55 31 -25&#xA;17 -51 32 -57 33 -7 1 -29 10 -51 19 -21 9 -42 17 -47 17 -5 0 -17 4 -27 10&#xA;-19 10 -145 41 -159 39 -4 -1 -10 -1 -13 1 -21 7 -196 20 -202 15z"></path>
</g>
</svg>